<svg width="95" height="95" viewBox="0 0 95 95" fill="none" xmlns="http://www.w3.org/2000/svg">
<path d="M95 47.5C95 70.4544 73.7319 89.0625 47.5 89.0625C42.7952 89.073 38.1096 88.4621 33.5647 87.2456C30.0972 89.0031 22.135 92.3756 8.74 94.5725C7.5525 94.7625 6.65 93.5275 7.11906 92.4231C9.22094 87.4594 11.1209 80.845 11.6909 74.8125C4.4175 67.5094 0 57.95 0 47.5C0 24.5456 21.2681 5.9375 47.5 5.9375C73.7319 5.9375 95 24.5456 95 47.5ZM29.6875 47.5C29.6875 45.9253 29.0619 44.4151 27.9484 43.3016C26.8349 42.1881 25.3247 41.5625 23.75 41.5625C22.1753 41.5625 20.6651 42.1881 19.5516 43.3016C18.4381 44.4151 17.8125 45.9253 17.8125 47.5C17.8125 49.0747 18.4381 50.5849 19.5516 51.6984C20.6651 52.8119 22.1753 53.4375 23.75 53.4375C25.3247 53.4375 26.8349 52.8119 27.9484 51.6984C29.0619 50.5849 29.6875 49.0747 29.6875 47.5ZM53.4375 47.5C53.4375 45.9253 52.8119 44.4151 51.6984 43.3016C50.5849 42.1881 49.0747 41.5625 47.5 41.5625C45.9253 41.5625 44.4151 42.1881 43.3016 43.3016C42.1881 44.4151 41.5625 45.9253 41.5625 47.5C41.5625 49.0747 42.1881 50.5849 43.3016 51.6984C44.4151 52.8119 45.9253 53.4375 47.5 53.4375C49.0747 53.4375 50.5849 52.8119 51.6984 51.6984C52.8119 50.5849 53.4375 49.0747 53.4375 47.5ZM71.25 53.4375C72.8247 53.4375 74.3349 52.8119 75.4484 51.6984C76.5619 50.5849 77.1875 49.0747 77.1875 47.5C77.1875 45.9253 76.5619 44.4151 75.4484 43.3016C74.3349 42.1881 72.8247 41.5625 71.25 41.5625C69.6753 41.5625 68.1651 42.1881 67.0516 43.3016C65.9381 44.4151 65.3125 45.9253 65.3125 47.5C65.3125 49.0747 65.9381 50.5849 67.0516 51.6984C68.1651 52.8119 69.6753 53.4375 71.25 53.4375Z" fill="#303030"/>
</svg>
