<svg width="80" height="80" viewBox="0 0 80 80" fill="none" xmlns="http://www.w3.org/2000/svg">
<path d="M35.3958 14.8327H47.7708L61.342 1.22017C61.7255 0.833538 62.1817 0.526662 62.6844 0.317241C63.1871 0.10782 63.7262 0 64.2708 0C64.8153 0 65.3545 0.10782 65.8571 0.317241C66.3598 0.526662 66.816 0.833538 67.1995 1.22017L77.842 11.9039C78.6103 12.6768 79.0415 13.7223 79.0415 14.812C79.0415 15.9018 78.6103 16.9473 77.842 17.7202L68.3958 27.2077H35.3958V35.4577C35.3958 36.5517 34.9612 37.6009 34.1876 38.3745C33.414 39.1481 32.3648 39.5827 31.2708 39.5827C30.1768 39.5827 29.1275 39.1481 28.354 38.3745C27.5804 37.6009 27.1458 36.5517 27.1458 35.4577V23.0827C27.1458 20.8946 28.015 18.7962 29.5621 17.249C31.1093 15.7019 33.2077 14.8327 35.3958 14.8327ZM10.6458 35.4577V51.9577L1.19952 61.4039C0.431235 62.1768 0 63.2223 0 64.312C0 65.4018 0.431235 66.4473 1.19952 67.2202L11.842 77.9039C12.2255 78.2906 12.6817 78.5974 13.1844 78.8068C13.6871 79.0163 14.2262 79.1241 14.7708 79.1241C15.3153 79.1241 15.8545 79.0163 16.3571 78.8068C16.8598 78.5974 17.316 78.2906 17.6995 77.9039L35.3958 60.2077H51.8958C52.9898 60.2077 54.039 59.7731 54.8126 58.9995C55.5862 58.2259 56.0208 57.1767 56.0208 56.0827V51.9577H60.1458C61.2398 51.9577 62.289 51.5231 63.0626 50.7495C63.8362 49.9759 64.2708 48.9267 64.2708 47.8327V43.7077H68.3958C69.4898 43.7077 70.539 43.2731 71.3126 42.4995C72.0862 41.7259 72.5208 40.6767 72.5208 39.5827V35.4577H43.6458V39.5827C43.6458 41.7707 42.7766 43.8691 41.2294 45.4163C39.6822 46.9635 37.5838 47.8327 35.3958 47.8327H27.1458C24.9577 47.8327 22.8593 46.9635 21.3121 45.4163C19.765 43.8691 18.8958 41.7707 18.8958 39.5827V27.2077L10.6458 35.4577Z" fill="#303030"/>
</svg>
