<svg width="86" height="91" viewBox="0 0 86 91" fill="none" xmlns="http://www.w3.org/2000/svg">
<path d="M46.2323 3.25C46.2323 2.38805 45.8899 1.5614 45.2804 0.951903C44.6709 0.34241 43.8443 0 42.9823 0C42.1204 0 41.2937 0.34241 40.6842 0.951903C40.0747 1.5614 39.7323 2.38805 39.7323 3.25V9.66333C39.7323 10.5253 40.0747 11.3519 40.6842 11.9614C41.2937 12.5709 42.1204 12.9133 42.9823 12.9133C43.8443 12.9133 44.6709 12.5709 45.2804 11.9614C45.8899 11.3519 46.2323 10.5253 46.2323 9.66333V3.25ZM68.38 37.8733C67.4769 34.3619 65.8373 31.0827 63.57 28.2533C61.3222 25.4042 58.5028 23.0572 55.2933 21.3633C52.0918 19.6828 48.584 18.6658 44.98 18.3733C41.3658 18.1018 37.7348 18.5889 34.32 19.8033C30.8863 21.0007 27.7419 22.905 25.09 25.3933C22.4666 27.8396 20.3596 30.7864 18.8933 34.06C17.4603 37.3839 16.7371 40.9705 16.77 44.59C16.6696 48.7706 17.5641 52.9152 19.3798 56.6823C21.1955 60.4493 23.8804 63.7309 27.2133 66.2567L28.73 67.6867C30.03 69.03 30.03 69.03 29.9867 72.02V73.4067C29.9345 74.3654 30.0821 75.3246 30.42 76.2233C30.7233 77.1853 31.2607 78.065 31.98 78.78C32.3093 79.118 32.6704 79.4213 33.0633 79.69V84.0233C32.992 84.8092 33.0769 85.6014 33.3132 86.3543C33.5494 87.1073 33.9324 87.806 34.4399 88.4102C34.9475 89.0144 35.5696 89.5122 36.2704 89.8749C36.9713 90.2376 37.7369 90.4579 38.5233 90.5233H47.19C48.7816 90.3909 50.2555 89.6318 51.2875 88.4128C52.3196 87.1939 52.8252 85.615 52.6933 84.0233V79.69C53.0845 79.4244 53.4475 79.1195 53.7767 78.78C54.457 78.0607 54.977 77.2027 55.2933 76.2667C55.6254 75.3513 55.7727 74.3793 55.7267 73.4067V71.8033C55.7267 69.42 55.7267 69.42 57.07 67.9033L58.7167 66.3867C64.2724 62.0658 67.9003 55.7287 68.8133 48.75C69.4513 45.1354 69.3035 41.4257 68.38 37.8733ZM46.41 83.9367H39.5633V81.2067H46.41V83.9367ZM42.9867 38.1767C41.5731 38.1767 40.2174 38.7382 39.2178 39.7378C38.2182 40.7374 37.6567 42.0931 37.6567 43.5067C37.6567 44.6559 37.2001 45.7581 36.3875 46.5708C35.5748 47.3834 34.4726 47.84 33.3233 47.84C32.1741 47.84 31.0719 47.3834 30.2592 46.5708C29.4465 45.7581 28.99 44.6559 28.99 43.5067C28.9785 41.6654 29.3327 39.8401 30.032 38.1368C30.7313 36.4334 31.7619 34.8859 33.0639 33.5839C34.3659 32.2819 35.9134 31.2513 37.6168 30.552C39.3201 29.8527 41.1454 29.4985 42.9867 29.51C44.1359 29.51 45.2381 29.9665 46.0508 30.7792C46.8635 31.5919 47.32 32.6941 47.32 33.8433C47.32 34.9926 46.8635 36.0948 46.0508 36.9075C45.2381 37.7201 44.1359 38.1767 42.9867 38.1767ZM82.68 49.01H74.75C73.888 49.01 73.0614 48.6676 72.4519 48.0581C71.8424 47.4486 71.5 46.6219 71.5 45.76C71.5 44.898 71.8424 44.0714 72.4519 43.4619C73.0614 42.8524 73.888 42.51 74.75 42.51H82.68C83.542 42.51 84.3686 42.8524 84.9781 43.4619C85.5876 44.0714 85.93 44.898 85.93 45.76C85.93 46.6219 85.5876 47.4486 84.9781 48.0581C84.3686 48.6676 83.542 49.01 82.68 49.01ZM66.7333 22.9667C66.3063 22.9687 65.8832 22.8854 65.4888 22.7217C65.0944 22.558 64.7367 22.3172 64.4367 22.0133C63.828 21.404 63.4862 20.5779 63.4862 19.7167C63.4862 18.8554 63.828 18.0294 64.4367 17.42L70.07 11.7867C70.6861 11.2126 71.501 10.9001 72.3429 10.9149C73.1849 10.9298 73.9882 11.2709 74.5837 11.8663C75.1791 12.4618 75.5202 13.2651 75.5351 14.1071C75.5499 14.949 75.2374 15.7639 74.6633 16.38L69.03 22.0133C68.7314 22.3191 68.374 22.5613 67.9793 22.7251C67.5845 22.889 67.1607 22.9711 66.7333 22.9667ZM76.7 76.8733C75.8429 76.8505 75.0247 76.5109 74.4033 75.92L68.77 70.2867C68.3893 69.9093 68.1078 69.4436 67.9507 68.931C67.7935 68.4185 67.7656 67.875 67.8695 67.3491C67.9733 66.8231 68.2056 66.331 68.5457 65.9166C68.8858 65.5023 69.3231 65.1784 69.8187 64.974C70.4133 64.7233 71.0697 64.6579 71.7021 64.7862C72.3345 64.9145 72.9135 65.2307 73.3633 65.6933L78.9967 71.3267C79.3033 71.6254 79.547 71.9826 79.7134 72.377C79.8797 72.7715 79.9655 73.1952 79.9655 73.6233C79.9655 74.0514 79.8797 74.4752 79.7134 74.8697C79.547 75.2641 79.3033 75.6212 78.9967 75.92C78.3878 76.5297 77.5617 76.8726 76.7 76.8733ZM19.2833 22.9667C18.4217 22.9659 17.5956 22.623 16.9867 22.0133L11.3533 16.38C10.7442 15.7651 10.4043 14.9335 10.4084 14.068C10.4124 13.2025 10.7601 12.3741 11.375 11.765C11.9899 11.1559 12.8215 10.816 13.687 10.82C14.5525 10.8241 15.3809 11.1718 15.99 11.7867L21.58 17.42C22.0339 17.8745 22.343 18.4533 22.4682 19.0834C22.5933 19.7135 22.529 20.3665 22.2832 20.96C22.0375 21.5535 21.6214 22.0609 21.0874 22.418C20.5535 22.7752 19.9257 22.9661 19.2833 22.9667ZM9.36 76.8733C8.93156 76.8857 8.50536 76.8071 8.10949 76.6428C7.71362 76.4785 7.35707 76.2321 7.06333 75.92C6.45471 75.3106 6.11286 74.4846 6.11286 73.6233C6.11286 72.7621 6.45471 71.936 7.06333 71.3267L12.6967 65.6933C13.3128 65.1192 14.1276 64.8067 14.9696 64.8216C15.8116 64.8364 16.6149 65.1775 17.2104 65.773C17.8058 66.3684 18.1469 67.1718 18.1618 68.0137C18.1766 68.8557 17.8641 69.6706 17.29 70.2867L11.7 75.9633C11.0611 76.5484 10.2263 76.873 9.36 76.8733ZM11.18 49.01H3.25C2.38805 49.01 1.5614 48.6676 0.951903 48.0581C0.342409 47.4486 0 46.6219 0 45.76C0 44.898 0.342409 44.0714 0.951903 43.4619C1.5614 42.8524 2.38805 42.51 3.25 42.51H11.18C12.042 42.51 12.8686 42.8524 13.4781 43.4619C14.0876 44.0714 14.43 44.898 14.43 45.76C14.43 46.6219 14.0876 47.4486 13.4781 48.0581C12.8686 48.6676 12.042 49.01 11.18 49.01Z" fill="#303030"/>
</svg>
